<?xml version="1.0" encoding="UTF-8"?>
<svg xmlns="http://www.w3.org/2000/svg" xmlns:xlink="http://www.w3.org/1999/xlink" version="1.1" id="Layer_1" x="0px" y="0px" width="100%" viewBox="0 0 1024 1024" enable-background="new 0 0 1024 1024" xml:space="preserve" style="background: transparent;">

<path fill="#1B023E" opacity="1.000000" stroke="none" d=" M457.701050,493.707886   C457.747406,497.790741 457.352264,501.938110 457.937103,505.942322   C458.978699,513.073853 460.613098,520.118774 461.688660,527.430298   C460.146332,525.226135 458.914917,522.791504 457.414490,519.825012   C456.057953,521.368896 455.034485,522.601990 453.940063,523.768555   C443.845642,534.528198 433.887054,545.421265 423.571594,555.965027   C418.621155,561.024963 412.989166,565.418030 407.665833,570.113098   C403.430176,572.583130 399.064209,574.870605 395.089996,577.706970   C394.444763,578.167419 395.020020,581.388489 395.904541,582.777405   C403.729095,595.063904 414.486176,604.241638 427.022034,611.459473   C428.215851,612.146912 429.356262,612.927185 431.806183,614.477112   C428.859924,614.754761 427.460602,615.002136 426.061371,615.001892   C366.594788,614.990845 307.128174,614.959412 247.661591,614.912720   C246.676239,614.911926 245.691071,614.691650 244.680771,614.170288   C246.437515,613.495483 248.219330,613.224182 250.423859,612.993958   C262.566376,611.349548 274.286194,609.664062 286.399048,607.900208   C296.863617,604.895325 306.935181,601.968750 317.390259,599.021118   C329.512726,593.962769 341.251678,588.925537 353.297699,583.840332   C353.922089,583.535339 354.239471,583.278259 354.696411,583.067749   C354.836029,583.114380 355.019409,582.884155 355.360046,582.818237   C364.872131,577.070068 374.043579,571.387817 383.553894,565.567749   C387.937225,562.320435 391.981689,559.211121 396.316132,556.023071   C396.876221,555.656494 397.146362,555.368591 397.667786,555.017090   C398.264496,554.582764 398.609894,554.212097 399.229370,553.738525   C399.724091,553.100647 399.944672,552.565735 400.119019,552.037231   C400.072845,552.043640 400.092102,552.134888 400.422485,552.012329   C401.788116,551.440918 403.084259,551.249207 403.818939,550.504028   C412.827118,541.367249 421.753143,532.149475 430.835663,522.736267   C431.021332,522.357422 431.071777,522.194946 431.085907,522.034424   C431.049561,522.036377 431.060120,522.108398 431.378601,521.973389   C439.024780,512.079956 446.352509,502.321472 454.024658,492.653809   C455.479767,493.065765 456.590393,493.386841 457.701050,493.707886  z"/>
<path fill="#63CEF9" opacity="1.000000" stroke="none" d=" M413.100677,407.291016   C411.102936,410.069397 408.894562,412.722961 407.157410,415.655701   C404.627808,419.926300 401.326050,421.455109 396.216522,421.337799   C379.465210,420.953217 362.700409,421.155487 345.458374,420.687927   C344.363708,419.311066 343.964417,418.036316 343.104706,417.501129   C337.367157,413.929260 331.636505,410.320557 325.694366,407.111298   C320.893005,404.518158 315.593536,402.822693 310.879028,400.098999   C302.696655,395.371735 294.792145,390.163055 286.778137,385.145050   C283.408081,383.034851 278.548676,381.621765 277.085419,378.582611   C275.340942,374.959259 273.091003,374.006989 270.006531,373.151794   C280.035339,372.055145 290.064148,370.958496 300.893616,370.188232   C307.159149,370.681274 312.623932,370.849548 318.088837,371.014160   C323.726868,371.183990 329.612549,370.365906 334.954956,371.709412   C348.909302,375.218536 362.647491,379.601654 376.429901,383.774933   C385.784149,386.607391 395.254669,389.440277 402.795013,396.009064   C406.610657,399.333069 409.688965,403.503357 413.100677,407.291016  z"/>
<path fill="#A744F2" opacity="1.000000" stroke="none" d=" M818.116333,426.008850   C823.313904,435.055298 827.226501,444.541229 827.744507,455.228607   C826.586487,448.461975 821.943665,446.026947 815.738708,445.763611   C810.648560,445.547577 805.543518,445.669159 800.445068,445.668396   C798.300415,445.668091 796.017822,446.239349 794.033752,445.693512   C782.382996,442.488495 770.696777,441.737335 758.761658,443.916199   C756.128052,444.396973 754.742188,445.068512 754.999817,447.843323   C740.935669,428.776917 720.669922,424.003510 698.650269,423.793701   C669.679443,423.517578 640.705017,423.613434 611.732178,423.550659   C609.287598,423.545380 606.843018,423.549988 603.730408,423.549988   C606.403992,416.839539 608.776123,410.885620 611.624512,405.033386   C615.209595,405.643890 618.304443,406.420258 621.431396,406.584045   C624.383789,406.738678 627.374512,406.023376 630.340332,406.083618   C640.957825,406.299377 651.615479,407.423767 662.175598,406.803040   C673.890686,406.114471 684.041443,411.455872 694.882935,413.877930   C701.025208,415.250183 706.684814,416.297546 712.845032,415.315887   C716.051880,414.804871 719.423279,414.331085 722.594910,414.762573   C738.524292,416.929749 754.329529,420.252808 770.566956,419.041962   C773.037537,418.857727 775.588257,418.901245 778.028259,419.295166   C791.403625,421.454620 804.756042,423.756134 818.116333,426.008850  z"/>
<path fill="#BF53F7" opacity="1.000000" stroke="none" d=" M614.161621,398.999847   C617.100464,391.197083 620.039368,383.394287 623.522705,375.173767   C624.419678,373.686310 624.772095,372.616638 625.124512,371.546967   C625.124512,371.546967 625.041687,371.223572 625.563232,371.364868   C627.158936,371.943542 628.197998,372.615784 629.312622,372.782501   C643.393005,374.888123 657.473267,377.001282 671.576111,378.949036   C684.868164,380.784851 698.182922,382.459198 711.496887,384.131989   C714.944031,384.565094 718.446838,384.568695 721.887085,385.039856   C735.005737,386.836609 748.342163,387.783142 761.150085,390.890503   C773.012451,393.768494 784.399353,398.596283 796.830139,399.040344   C798.823792,400.773224 800.817444,402.506104 802.999512,404.848511   C803.665894,405.767792 804.143799,406.077484 804.621704,406.387146   C804.598816,406.560577 804.575989,406.734039 804.613403,406.925018   C804.978516,407.129639 805.283325,407.316681 805.588196,407.503723   C805.588196,407.503723 805.442017,407.556458 805.516296,407.768585   C805.905640,408.204865 806.220703,408.429016 806.535706,408.653198   C806.535706,408.653198 806.346008,408.651794 806.408203,408.829834   C806.877380,409.331573 807.284424,409.655304 807.691467,409.979034   C807.691467,409.979034 808.058411,410.195190 808.182129,410.650635   C808.502075,411.394653 808.698303,411.683197 808.894531,411.971741   C810.006409,413.270935 811.118286,414.570099 812.023560,416.242493   C807.359009,415.946106 802.915283,415.154175 798.440186,414.630920   C787.155090,413.311340 775.853516,412.132751 764.562744,410.860992   C747.344421,408.921631 730.144409,406.805481 712.908020,405.045044   C701.175354,403.846741 689.434509,403.052612 678.539856,397.807007   C676.713806,396.927826 674.320374,397.135223 672.179382,397.018280   C663.285828,396.532501 654.391724,395.872253 645.491577,395.755005   C639.229248,395.672485 632.937866,396.168640 626.695374,396.775208   C622.485168,397.184265 618.337341,398.235748 614.161621,398.999847  z"/>
<path fill="#2B5CF0" opacity="1.000000" stroke="none" d=" M236.327545,507.932068   C220.702148,501.157440 214.288437,488.128357 212.007248,472.240356   C210.188873,459.575836 210.956833,447.018555 214.007538,434.227448   C223.013443,434.959717 231.326111,436.030945 239.654297,436.963715   C244.414429,437.496826 249.292526,437.359863 253.949326,438.331085   C259.269562,439.440643 265.206146,439.822357 267.638458,444.620972   C271.818817,443.267944 275.472900,442.152405 279.070984,440.878632   C280.113251,440.509644 280.994873,439.686829 281.950104,439.072052   C282.645477,444.251831 283.340820,449.431580 284.138000,455.324341   C285.699829,458.308105 286.113495,460.518005 282.983917,461.550262   C278.032654,463.183472 272.962677,464.454163 267.995026,466.041229   C265.015625,466.993073 259.992126,467.759644 259.597778,469.466644   C258.219360,475.433807 258.454559,481.773682 257.890778,488.261536   C251.470642,495.360718 245.236420,502.170319 239.002228,508.979950   C238.470123,508.848572 237.938004,508.717224 237.018921,508.282440   C236.631927,507.979034 236.327545,507.932068 236.327545,507.932068  z"/>
<path fill="#452CC6" opacity="1.000000" stroke="none" d=" M469.031677,540.015869   C484.668549,556.125183 504.315002,562.284790 526.684875,563.440857   C528.576050,565.835693 530.158813,567.825989 526.831848,569.495789   C517.210693,574.324646 507.478973,578.948669 498.002747,584.047302   C482.717377,592.271545 467.601624,600.811157 452.414246,609.217529   C444.091034,603.860046 435.767822,598.502625 427.139709,592.734863   C426.699585,592.142883 426.525940,592.012146 426.313873,591.932434   C425.686462,591.411865 425.059052,590.891296 424.410217,589.817749   C425.751923,587.623840 426.878082,585.677429 428.523804,584.400818   C432.982513,580.942139 437.900177,578.050781 442.206116,574.424194   C452.531647,565.727783 461.712738,556.112122 465.449951,542.527161   C465.840973,541.105774 467.272095,539.970459 468.220581,538.702454   C468.220581,538.702454 468.227356,538.746582 468.273651,539.010498   C468.557190,539.521545 468.794434,539.768677 469.031677,540.015869  z"/>
<path fill="#353CCB" opacity="1.000000" stroke="none" d=" M452.671997,609.483337   C467.601624,600.811157 482.717377,592.271545 498.002747,584.047302   C507.478973,578.948669 517.210693,574.324646 526.831848,569.495789   C530.158813,567.825989 528.576050,565.835693 527.124268,563.533325   C541.001526,563.161804 554.982239,563.189941 568.960449,563.014465   C574.776306,562.941467 580.586670,562.434082 586.664246,562.465942   C580.184448,568.475647 573.440002,574.143616 566.509399,579.867920   C566.323364,579.924133 565.980896,580.112610 565.758179,580.187622   C565.251343,580.427856 565.052734,580.664734 564.967163,580.985718   C564.994690,580.998169 564.977295,580.940186 564.720398,581.034241   C564.209167,581.386353 563.954834,581.644470 563.367676,581.986206   C557.248962,585.659302 551.463013,589.248718 545.489746,592.865112   C545.302490,592.892029 544.976013,593.083557 544.722046,593.145264   C544.212463,593.439697 543.956787,593.672302 543.361755,593.973267   C538.001892,596.665100 532.981262,599.288513 527.596069,601.973877   C511.325134,609.115173 494.964447,614.811890 477.864990,618.260864   C469.553253,615.423645 461.241486,612.586426 452.671997,609.483337  z"/>
<path fill="#28AEEA" opacity="1.000000" stroke="none" d=" M803.108398,564.112000   C794.890564,576.569336 783.150879,585.104187 770.152954,592.970703   C767.406555,592.209656 765.428406,591.348450 763.361511,590.874939   C756.599304,589.325684 749.463318,588.775818 743.105652,586.246521   C734.388428,582.778381 726.443420,577.407471 717.810974,573.676880   C709.886841,570.252441 703.200012,562.469543 693.053162,565.780334   C692.453796,565.975891 691.574097,565.220642 690.800293,564.990051   C688.524536,564.311829 686.246338,563.151672 683.951477,563.107971   C670.497131,562.851746 657.037781,562.860229 643.580078,562.779419   C645.347290,562.522278 647.112915,562.054749 648.881958,562.041138   C663.005981,561.932556 677.130676,561.909851 692.173828,561.938721   C699.364807,561.975952 705.695129,562.461548 711.896179,561.776672   C722.320007,560.625427 732.661743,558.730164 743.363831,557.130615   C744.121948,557.064392 744.554199,557.015442 745.286133,556.974243   C746.113586,556.727783 746.641357,556.473511 747.520142,556.202148   C748.568909,556.101074 749.266724,556.017273 750.209167,555.879150   C750.713684,555.620056 750.973572,555.415283 751.627319,555.186401   C759.002686,553.058716 765.984314,550.955139 773.122803,549.165955   C777.328491,552.206055 781.115906,555.498291 785.491089,557.516357   C791.160400,560.131287 796.022156,565.226257 803.108398,564.112000  z"/>
<path fill="#25DAE9" opacity="1.000000" stroke="none" d=" M739.120728,607.298096   C724.699036,612.732239 709.582764,614.367554 694.381348,614.604309   C669.783875,614.987427 645.176514,614.732239 620.573303,614.730591   C619.594055,614.730530 618.614807,614.566345 616.744324,614.398682   C622.322388,600.954468 627.747375,587.879089 633.443359,574.940002   C632.015625,583.616699 632.845581,585.425171 641.791870,585.908875   C654.674744,586.605347 666.866394,589.804260 678.973022,593.821777   C694.294556,598.906311 710.161011,601.173950 726.115540,603.228333   C730.462036,603.787964 736.064819,602.012695 739.120728,607.298096  z"/>
<path fill="#7F65F2" opacity="1.000000" stroke="none" d=" M584.047302,369.510437   C586.433289,369.444489 588.819214,369.378571 591.966919,369.527039   C595.122192,369.653259 597.515808,369.565063 599.909424,369.476868   C601.674194,369.448608 603.438904,369.420288 605.782104,369.554626   C606.360474,369.717285 606.729187,369.734680 606.729187,369.734680   C606.729187,369.734680 607.013489,369.499084 607.013489,369.499084   C607.013489,369.499084 607.440552,369.610046 607.410461,370.095856   C607.312378,371.017517 607.244385,371.453369 607.176392,371.889191   C602.516052,383.384735 597.855835,394.880249 592.779663,406.438049   C590.863281,405.972473 589.131653,404.667999 587.897400,405.035217   C573.055481,409.451019 558.257324,414.023193 543.545288,418.851807   C542.050537,419.342438 541.189697,421.764648 540.034607,423.290466   C538.640137,423.535034 537.245605,423.779633 535.055115,423.949646   C532.823425,424.181244 531.387817,424.487427 529.952148,424.793579   C525.271484,425.853577 520.590759,426.913605 515.259094,427.674988   C513.917236,421.626434 514.091187,415.508972 508.083008,411.645996   C508.104889,410.525604 508.125183,409.778778 508.506714,409.011414   C512.344177,407.451538 515.990234,406.206238 519.263855,404.316071   C528.031250,399.253876 537.277954,397.255432 547.377930,398.366760   C549.332031,398.581787 551.672302,397.037323 553.552979,395.856293   C560.525208,391.478058 567.022583,386.163452 574.389648,382.650146   C580.465393,379.752655 583.367432,375.762665 584.047302,369.510437  z"/>
<path fill="#69E0F9" opacity="1.000000" stroke="none" d=" M413.450439,407.229553   C409.688965,403.503357 406.610657,399.333069 402.795013,396.009064   C395.254669,389.440277 385.784149,386.607391 376.429901,383.774933   C362.647491,379.601654 348.909302,375.218536 334.954956,371.709412   C329.612549,370.365906 323.726868,371.183990 318.088837,371.014160   C312.623932,370.849548 307.159149,370.681274 301.353027,370.283142   C321.473541,369.921906 341.935272,369.697784 362.397095,369.683594   C396.349823,369.660034 430.302612,369.771484 464.255371,369.825714   C465.407990,369.827545 466.560608,369.825897 469.180756,369.825897   C464.277985,372.172485 460.643890,373.865692 457.049866,375.639984   C441.851715,383.143127 428.168945,392.735596 416.484467,405.088287   C415.715851,405.900909 414.700653,406.480255 413.450439,407.229553  z"/>
<path fill="#5851E7" opacity="1.000000" stroke="none" d=" M508.145477,409.031982   C508.125183,409.778778 508.104889,410.525604 507.790649,411.819580   C503.601288,418.460052 498.433624,422.950867 492.049774,426.538727   C485.056091,430.469391 478.669312,435.479919 471.587097,440.010620   C469.435852,439.994080 467.715515,439.986786 466.003784,439.584900   C468.102173,432.678772 470.192017,426.167267 472.352570,419.435516   C465.372223,421.691833 458.700684,423.848358 451.728699,425.822083   C448.703217,423.813568 448.691345,421.492126 450.097839,418.827362   C451.460052,416.246460 452.724609,413.613953 454.336304,410.853668   C458.635620,408.454559 462.420471,405.620758 466.674377,404.092804   C473.228943,401.738525 476.016296,397.345490 477.296387,390.761993   C478.138824,386.429443 476.944794,385.184845 473.072418,385.168182   C485.350067,378.929810 498.063782,374.078033 512.763062,372.969421   C514.872314,373.215881 516.164734,373.435547 517.457214,373.655243   C517.668457,374.167908 517.879700,374.680573 518.091003,375.193237   C512.628052,380.522827 507.073456,385.764252 501.784027,391.260803   C500.797607,392.285889 500.062012,394.732849 500.604401,395.842102   C502.824463,400.382294 505.584351,404.658539 508.145477,409.031982  z"/>
<path fill="#3A8BF5" opacity="1.000000" stroke="none" d=" M282.067627,438.697266   C280.994873,439.686829 280.113251,440.509644 279.070984,440.878632   C275.472900,442.152405 271.818817,443.267944 267.638458,444.620972   C265.206146,439.822357 259.269562,439.440643 253.949326,438.331085   C249.292526,437.359863 244.414429,437.496826 239.654297,436.963715   C231.326111,436.030945 223.013443,434.959717 214.239532,433.920410   C216.155777,421.317169 220.596832,409.613892 228.912552,399.408173   C241.606689,404.255127 253.721695,409.136261 265.943848,413.732483   C274.224670,416.846527 282.368652,420.041107 288.237213,427.109009   C286.219849,430.846832 284.202515,434.584686 282.067627,438.697266  z"/>
<path fill="#6768F1" opacity="1.000000" stroke="none" d=" M508.506714,409.011414   C505.584351,404.658539 502.824463,400.382294 500.604401,395.842102   C500.062012,394.732849 500.797607,392.285889 501.784027,391.260803   C507.073456,385.764252 512.628052,380.522827 518.091003,375.193237   C517.879700,374.680573 517.668457,374.167908 517.457214,373.655243   C516.164734,373.435547 514.872314,373.215881 513.196106,372.966675   C517.973999,371.927307 523.135620,370.917419 529.058960,369.970337   C530.221375,369.928284 530.622070,369.823364 531.022766,369.718445   C531.729553,369.658600 532.436340,369.598755 533.675476,369.656372   C534.507629,369.814331 534.741699,369.708771 534.909912,369.457153   C545.985474,369.386292 557.060974,369.315460 568.730835,369.626526   C570.866150,369.823517 572.407166,369.638641 573.948181,369.453766   C577.014587,369.401764 580.080994,369.349731 583.597351,369.404053   C583.367432,375.762665 580.465393,379.752655 574.389648,382.650146   C567.022583,386.163452 560.525208,391.478058 553.552979,395.856293   C551.672302,397.037323 549.332031,398.581787 547.377930,398.366760   C537.277954,397.255432 528.031250,399.253876 519.263855,404.316071   C515.990234,406.206238 512.344177,407.451538 508.506714,409.011414  z"/>
<path fill="#B64CF7" opacity="1.000000" stroke="none" d=" M614.085693,399.217224   C618.337341,398.235748 622.485168,397.184265 626.695374,396.775208   C632.937866,396.168640 639.229248,395.672485 645.491577,395.755005   C654.391724,395.872253 663.285828,396.532501 672.179382,397.018280   C674.320374,397.135223 676.713806,396.927826 678.539856,397.807007   C689.434509,403.052612 701.175354,403.846741 712.908020,405.045044   C730.144409,406.805481 747.344421,408.921631 764.562744,410.860992   C775.853516,412.132751 787.155090,413.311340 798.440186,414.630920   C802.915283,415.154175 807.359009,415.946106 812.219421,416.505188   C812.621826,416.394653 812.595215,416.411774 812.625488,416.700134   C812.934387,417.220154 813.213074,417.451843 813.491760,417.683563   C813.491760,417.683563 813.304321,417.711914 813.385376,417.897217   C813.731812,418.353760 813.997192,418.624939 814.262512,418.896149   C814.262512,418.896149 814.098938,418.890503 814.207275,419.048859   C814.535278,419.469360 814.754944,419.731476 814.974609,419.993591   C814.974609,419.993591 815.186646,420.096344 815.232666,420.509766   C815.492249,421.277557 815.705933,421.631866 815.919556,421.986206   C816.648987,423.100952 817.378357,424.215668 818.112061,425.669617   C804.756042,423.756134 791.403625,421.454620 778.028259,419.295166   C775.588257,418.901245 773.037537,418.857727 770.566956,419.041962   C754.329529,420.252808 738.524292,416.929749 722.594910,414.762573   C719.423279,414.331085 716.051880,414.804871 712.845032,415.315887   C706.684814,416.297546 701.025208,415.250183 694.882935,413.877930   C684.041443,411.455872 673.890686,406.114471 662.175598,406.803040   C651.615479,407.423767 640.957825,406.299377 630.340332,406.083618   C627.374512,406.023376 624.383789,406.738678 621.431396,406.584045   C618.304443,406.420258 615.209595,405.643890 611.866943,404.772034   C611.801208,403.676300 611.969177,402.943604 612.642822,401.885742   C613.420532,401.004669 613.692627,400.448792 613.964722,399.892914   C613.964722,399.892914 614.009705,399.434601 614.085693,399.217224  z"/>
<path fill="#5851E7" opacity="1.000000" stroke="none" d=" M258.076721,487.971985   C258.454559,481.773682 258.219360,475.433807 259.597778,469.466644   C259.992126,467.759644 265.015625,466.993073 267.995026,466.041229   C272.962677,464.454163 278.032654,463.183472 282.983917,461.550262   C286.113495,460.518005 285.699829,458.308105 284.161133,455.682678   C289.348419,462.005280 296.687134,463.904999 304.681152,464.117249   C310.144501,464.262390 315.614014,464.175598 321.522461,464.748901   C322.373810,471.803436 326.758057,475.857300 330.981934,480.384735   C330.293823,483.512665 329.623871,486.254517 328.557007,489.008301   C324.764557,489.590881 321.386566,490.323120 317.969330,490.694855   C312.664825,491.271912 307.333588,491.603394 301.600922,492.046692   C294.462158,493.042114 287.736206,494.029877 280.856018,494.695740   C278.719818,492.921082 276.914001,490.648773 274.721069,490.177307   C269.266937,489.004913 263.636414,488.653229 258.076721,487.971985  z"/>
<path fill="#8132ED" opacity="1.000000" stroke="none" d=" M755.072632,448.199524   C754.742188,445.068512 756.128052,444.396973 758.761658,443.916199   C770.696777,441.737335 782.382996,442.488495 794.033752,445.693512   C796.017822,446.239349 798.300415,445.668091 800.445068,445.668396   C805.543518,445.669159 810.648560,445.547577 815.738708,445.763611   C821.943665,446.026947 826.586487,448.461975 827.648315,455.648987   C828.763306,462.324127 829.660583,468.726807 829.988403,475.578888   C826.314514,475.530334 823.205444,475.059906 820.106628,474.529419   C809.726440,472.752563 799.654785,468.807404 788.740356,470.866608   C785.600891,471.458923 782.159729,470.526215 778.865601,470.204315   C775.569275,469.882233 772.155212,468.713745 769.027527,469.260132   C765.480713,469.879761 763.754456,468.453400 762.074768,466.015442   C759.765015,460.195526 757.455261,454.375610 755.072632,448.199524  z"/>
<path fill="#28C1EB" opacity="1.000000" stroke="none" d=" M643.239075,562.802490   C657.037781,562.860229 670.497131,562.851746 683.951477,563.107971   C686.246338,563.151672 688.524536,564.311829 690.800293,564.990051   C691.574097,565.220642 692.453796,565.975891 693.053162,565.780334   C703.200012,562.469543 709.886841,570.252441 717.810974,573.676880   C726.443420,577.407471 734.388428,582.778381 743.105652,586.246521   C749.463318,588.775818 756.599304,589.325684 763.361511,590.874939   C765.428406,591.348450 767.406555,592.209656 769.801880,592.972168   C765.695862,595.690857 761.213379,598.330688 756.086426,600.759949   C753.357544,600.020813 751.255127,599.553894 749.191711,598.953003   C740.121460,596.311646 731.047302,593.681946 722.004761,590.948120   C715.712891,589.045837 709.561768,586.589905 703.180603,585.094788   C696.263184,583.473999 689.128540,582.805603 682.130798,581.496399   C672.849976,579.760071 663.585388,577.918152 654.360840,575.906006   C647.833130,574.482178 640.527649,576.048767 634.924316,570.978943   C637.582214,568.261169 640.240112,565.543396 643.239075,562.802490  z"/>
<path fill="#D062F7" opacity="1.000000" stroke="none" d=" M796.662231,398.751892   C784.399353,398.596283 773.012451,393.768494 761.150085,390.890503   C748.342163,387.783142 735.005737,386.836609 721.887085,385.039856   C718.446838,384.568695 714.944031,384.565094 711.496887,384.131989   C698.182922,382.459198 684.868164,380.784851 671.576111,378.949036   C657.473267,377.001282 643.393005,374.888123 629.312622,372.782501   C628.197998,372.615784 627.158936,371.943542 625.682861,371.248535   C626.493286,370.436584 627.712341,369.384247 628.916931,369.400696   C661.186401,369.841400 693.476501,369.847870 725.713379,371.154663   C741.692200,371.802368 757.373779,376.012909 771.804077,383.175018   C780.436951,387.459717 788.290527,393.314423 796.662231,398.751892  z"/>
<path fill="#441EA8" opacity="1.000000" stroke="none" d=" M468.120056,538.383789   C467.272095,539.970459 465.840973,541.105774 465.449951,542.527161   C461.712738,556.112122 452.531647,565.727783 442.206116,574.424194   C437.900177,578.050781 432.982513,580.942139 428.523804,584.400818   C426.878082,585.677429 425.751923,587.623840 424.243347,589.558167   C418.740967,583.475525 413.384033,577.099487 407.846436,570.418213   C412.989166,565.418030 418.621155,561.024963 423.571594,555.965027   C433.887054,545.421265 443.845642,534.528198 453.940063,523.768555   C455.034485,522.601990 456.057953,521.368896 457.414490,519.825012   C458.914917,522.791504 460.146332,525.226135 461.694031,527.817017   C464.013367,531.337341 466.016449,534.701233 468.120056,538.383789  z"/>
<path fill="#441EA8" opacity="1.000000" stroke="none" d=" M896.969604,492.004883   C900.832031,489.360779 897.737000,488.334564 896.178955,487.271149   C885.592834,480.045502 874.954834,472.895691 864.326721,465.731689   C855.064941,459.488678 855.023193,458.658997 864.162415,450.486908   C882.906555,463.332855 901.783081,476.269501 921.790283,489.981018   C901.901245,503.569305 882.912659,516.542480 863.267822,529.963928   C860.809326,526.746704 858.545654,523.784424 855.855225,520.263611   C869.669312,510.770233 883.171631,501.491119 896.969604,492.004883  z"/>
<path fill="#612BD6" opacity="1.000000" stroke="none" d=" M286.005981,607.978516   C274.286194,609.664062 262.566376,611.349548 250.442276,612.632080   C250.398087,611.319763 250.545792,610.226074 251.150726,609.529236   C258.535156,601.022461 265.838837,592.437683 273.468964,584.154663   C279.279877,577.846497 285.439636,571.849304 291.625885,565.902710   C293.926971,563.690857 294.367340,561.512756 293.080536,558.773682   C302.429596,558.672119 311.778687,558.570618 321.566956,558.953064   C320.877014,561.585815 320.054138,563.980408 318.562744,565.838379   C313.580383,572.045288 308.384644,578.082336 303.220703,584.141846   C298.930481,589.176208 294.926483,594.534790 290.106445,599.006897   C287.224548,601.680786 285.710999,604.217529 286.005981,607.978516  z"/>
<path fill="#50B7F6" opacity="1.000000" stroke="none" d=" M269.616150,373.125305   C273.091003,374.006989 275.340942,374.959259 277.085419,378.582611   C278.548676,381.621765 283.408081,383.034851 286.778137,385.145050   C294.792145,390.163055 302.696655,395.371735 310.879028,400.098999   C315.593536,402.822693 320.893005,404.518158 325.694366,407.111298   C331.636505,410.320557 337.367157,413.929260 343.104706,417.501129   C343.964417,418.036316 344.363708,419.311066 344.998840,420.597046   C332.655060,421.015137 320.288483,421.079865 307.443787,420.691833   C301.482025,415.419647 296.586823,409.584198 290.390381,405.995514   C278.084503,398.868500 265.054871,392.992859 252.341614,386.565826   C250.177658,385.471893 248.100098,384.207031 245.982620,383.021118   C253.730331,379.713715 261.478027,376.406281 269.616150,373.125305  z"/>
<path fill="#A744F2" opacity="1.000000" stroke="none" d=" M388.174561,535.019531   C385.754395,519.939270 380.692474,515.601440 364.466736,514.564941   C363.317322,511.443573 362.580353,508.817230 361.850128,506.189056   C359.733215,498.570648 353.740112,491.760834 357.430908,483.007996   C359.780243,482.678894 361.731354,482.441498 363.642731,482.022858   C368.100403,481.046509 372.539032,479.983002 377.164978,479.240234   C383.495148,483.976349 389.603424,488.486908 395.807037,492.862366   C403.293640,498.142700 406.084930,504.166290 403.002716,511.935974   C400.471466,518.316833 396.737946,524.251160 393.209442,530.188599   C392.064178,532.115662 389.882324,533.426758 388.174561,535.019531  z"/>
<path fill="#512BCE" opacity="1.000000" stroke="none" d=" M292.625244,558.634949   C294.367340,561.512756 293.926971,563.690857 291.625885,565.902710   C285.439636,571.849304 279.279877,577.846497 273.468964,584.154663   C265.838837,592.437683 258.535156,601.022461 251.150726,609.529236   C250.545792,610.226074 250.398087,611.319763 250.019547,612.591003   C248.219330,613.224182 246.437515,613.495483 244.331360,613.955017   C237.629990,614.294495 231.252945,614.445801 224.459290,614.153809   C224.180252,613.066162 224.126755,612.280396 224.483612,611.798279   C231.862396,601.829834 239.247269,591.865295 246.719208,581.966675   C251.276459,575.929260 254.751373,568.975525 262.289093,565.513428   C263.908783,564.769470 264.165436,561.057739 265.049988,558.713135   C274.089935,558.640808 283.129944,558.568542 292.625244,558.634949  z"/>
<path fill="#25DAE9" opacity="1.000000" stroke="none" d=" M478.125610,618.496704   C494.964447,614.811890 511.325134,609.115173 527.841675,602.246887   C536.304626,603.971863 544.127686,605.667908 552.017212,606.956665   C563.575439,608.844727 575.363159,609.697754 586.691833,612.468872   C592.539856,613.899414 596.500977,613.872314 600.003906,609.005920   C599.611938,613.078979 597.152527,614.630127 593.327698,615.731750   C557.626221,626.014771 521.577087,627.433594 485.144043,620.500488   C482.861938,620.066162 480.637512,619.328796 478.125610,618.496704  z"/>
<path fill="#27CDEB" opacity="1.000000" stroke="none" d=" M634.705688,571.186401   C640.527649,576.048767 647.833130,574.482178 654.360840,575.906006   C663.585388,577.918152 672.849976,579.760071 682.130798,581.496399   C689.128540,582.805603 696.263184,583.473999 703.180603,585.094788   C709.561768,586.589905 715.712891,589.045837 722.004761,590.948120   C731.047302,593.681946 740.121460,596.311646 749.191711,598.953003   C751.255127,599.553894 753.357544,600.020813 755.728027,600.789917   C750.644531,603.091492 745.275024,605.152466 739.513184,607.255737   C736.064819,602.012695 730.462036,603.787964 726.115540,603.228333   C710.161011,601.173950 694.294556,598.906311 678.973022,593.821777   C666.866394,589.804260 654.674744,586.605347 641.791870,585.908875   C632.845581,585.425171 632.015625,583.616699 633.686401,574.668823   C633.934753,573.305603 634.210938,572.349792 634.705688,571.186401  z"/>
<path fill="#B64CF7" opacity="1.000000" stroke="none" d=" M388.074280,535.345703   C389.882324,533.426758 392.064178,532.115662 393.209442,530.188599   C396.737946,524.251160 400.471466,518.316833 403.002716,511.935974   C406.084930,504.166290 403.293640,498.142700 395.807037,492.862366   C389.603424,488.486908 383.495148,483.976349 377.156982,478.823761   C377.340942,473.591461 377.712585,469.061066 378.084229,464.530670   C378.836487,464.471527 379.588776,464.412354 380.891968,464.778809   C382.040680,465.452820 382.679535,465.984772 383.229828,465.905121   C387.861664,465.234711 390.168823,467.445587 392.499420,471.407074   C396.417297,478.066681 400.374054,485.313202 406.126465,490.163971   C420.618683,502.384613 417.766571,520.679810 408.107178,533.765015   C404.239014,539.005127 402.694336,545.960327 400.092102,552.134888   C400.092102,552.134888 400.072845,552.043640 399.888550,552.201782   C399.454590,552.853699 399.204926,553.347595 398.955261,553.841431   C398.609894,554.212097 398.264496,554.582764 397.400146,555.136292   C396.596191,555.580078 396.311188,555.840942 396.026184,556.101807   C391.981689,559.211121 387.937225,562.320435 383.514587,565.086548   C382.403564,560.786865 381.670746,556.830505 380.937927,552.874146   C382.841370,549.768982 384.744812,546.663818 386.984833,543.193298   C387.529724,542.551514 387.513153,542.283569 387.271698,542.024109   C387.344360,541.257385 387.417023,540.490662 387.856110,539.271240   C388.181793,538.219421 388.141022,537.620361 388.100220,537.021240   C388.058136,536.571411 388.016052,536.121582 388.074280,535.345703  z"/>
<path fill="#45A3F5" opacity="1.000000" stroke="none" d=" M245.645020,383.076477   C248.100098,384.207031 250.177658,385.471893 252.341614,386.565826   C265.054871,392.992859 278.084503,398.868500 290.390381,405.995514   C296.586823,409.584198 301.482025,415.419647 306.982788,420.601013   C300.960144,422.930389 294.920380,424.897919 288.558929,426.987244   C282.368652,420.041107 274.224670,416.846527 265.943848,413.732483   C253.721695,409.136261 241.606689,404.255127 229.206879,399.248260   C234.414261,393.711395 239.860840,388.421600 245.645020,383.076477  z"/>
<path fill="#3A2EB8" opacity="1.000000" stroke="none" d=" M204.016830,614.291931   C197.310669,614.291931 190.604507,614.291931 182.969620,614.291931   C186.151077,608.754517 188.782211,603.991760 191.584915,599.332153   C199.123703,586.798584 206.631973,574.243652 214.439423,561.878418   C215.515045,560.174805 218.190842,558.561829 220.172958,558.503174   C231.135361,558.179199 242.112381,558.349915 253.372070,558.752686   C242.417313,561.360962 235.284805,568.902527 228.685760,577.593567   C222.907516,585.203613 216.636826,592.516357 209.933701,599.320129   C205.611938,603.706726 203.313339,608.236877 204.016830,614.291931  z"/>
<path fill="#BF53F7" opacity="1.000000" stroke="none" d=" M400.422485,552.012329   C402.694336,545.960327 404.239014,539.005127 408.107178,533.765015   C417.766571,520.679810 420.618683,502.384613 406.126465,490.163971   C400.374054,485.313202 396.417297,478.066681 392.499420,471.407074   C390.168823,467.445587 387.861664,465.234711 383.229828,465.905121   C382.679535,465.984772 382.040680,465.452820 381.247131,464.915588   C386.470520,464.491486 391.889648,464.356171 398.199036,464.311798   C402.697601,464.686462 406.305878,464.970215 409.788452,465.552368   C409.751404,466.973145 409.651978,468.150177 409.959869,469.208801   C411.716095,475.248077 414.570648,480.249786 419.015442,485.205536   C428.148682,495.388763 433.618439,507.672089 431.060120,522.108398   C431.060120,522.108398 431.049561,522.036377 430.952148,522.107422   C430.585968,522.381775 430.534485,522.639832 430.700378,522.952637   C421.753143,532.149475 412.827118,541.367249 403.818939,550.504028   C403.084259,551.249207 401.788116,551.440918 400.422485,552.012329  z"/>
<path fill="#5932E2" opacity="1.000000" stroke="none" d=" M758.845459,510.982178   C760.241028,502.585144 761.636597,494.188110 763.484985,485.408997   C764.984802,485.439514 766.031860,485.852112 767.236572,486.326874   C767.805786,485.002991 768.347900,483.742004 768.865173,482.538879   C771.617126,483.079285 774.027893,483.618652 776.461487,484.019043   C786.391296,485.652740 796.350769,487.118134 806.252563,488.904694   C811.098083,489.779053 815.953857,490.897308 820.594482,492.510712   C824.258667,493.784698 829.050293,494.371216 829.082581,500.002319   C829.116089,500.183655 829.149658,500.365021 828.877197,501.007874   C828.397583,502.013885 828.224121,502.558441 828.050598,503.103027   C828.050598,503.103027 828.053101,503.031281 827.746216,503.091431   C824.609436,506.762909 821.779541,510.374207 818.628052,513.833618   C808.284363,510.883270 798.336853,507.758606 788.205200,505.438324   C783.827332,504.435730 778.998657,505.563629 774.500183,504.888306   C767.916626,503.899994 762.078247,503.812805 758.845459,510.982178  z"/>
<path fill="#353CCB" opacity="1.000000" stroke="none" d=" M772.965881,548.851562   C765.984314,550.955139 759.002686,553.058716 751.380371,555.238037   C750.481262,555.520386 750.222900,555.726929 749.964478,555.933472   C749.266724,556.017273 748.568909,556.101074 747.215332,556.172363   C746.035156,556.428589 745.510803,556.697510 744.986450,556.966431   C744.554199,557.015442 744.121948,557.064392 743.300171,556.773376   C741.638916,555.297974 740.412231,554.106445 739.085388,553.039429   C736.725098,551.141479 734.304321,549.318909 731.908813,547.464783   C740.276428,540.577637 747.767822,532.923279 753.732178,523.134888   C762.414001,524.008301 770.480103,524.695251 778.374756,526.251404   C785.676941,527.690796 793.738098,526.588013 799.832520,532.271423   C798.429749,533.659119 797.194702,534.777832 795.651855,536.057251   C787.884644,540.429138 780.425293,544.640320 772.965881,548.851562  z"/>
<path fill="#452CC6" opacity="1.000000" stroke="none" d=" M204.468994,614.418457   C203.313339,608.236877 205.611938,603.706726 209.933701,599.320129   C216.636826,592.516357 222.907516,585.203613 228.685760,577.593567   C235.284805,568.902527 242.417313,561.360962 253.823364,558.877319   C257.378693,558.546631 260.770416,558.492859 264.606079,558.576172   C264.165436,561.057739 263.908783,564.769470 262.289093,565.513428   C254.751373,568.975525 251.276459,575.929260 246.719208,581.966675   C239.247269,591.865295 231.862396,601.829834 224.483612,611.798279   C224.126755,612.280396 224.180252,613.066162 224.042023,614.038330   C217.667969,614.425720 211.294556,614.485291 204.468994,614.418457  z"/>
<path fill="#6E30E7" opacity="1.000000" stroke="none" d=" M286.399048,607.900208   C285.710999,604.217529 287.224548,601.680786 290.106445,599.006897   C294.926483,594.534790 298.930481,589.176208 303.220703,584.141846   C308.384644,578.082336 313.580383,572.045288 318.562744,565.838379   C320.054138,563.980408 320.877014,561.585815 322.013428,559.101929   C327.728210,558.690125 333.435730,558.613525 339.809326,558.935547   C342.585663,559.831421 344.695953,560.328613 347.444550,560.976196   C346.052124,563.195618 345.284973,564.877197 344.116913,566.206604   C335.756805,575.722168 327.276703,585.132507 318.949677,594.676575   C317.948883,595.823608 317.637634,597.572388 317.006744,599.042236   C306.935181,601.968750 296.863617,604.895325 286.399048,607.900208  z"/>
<path fill="#4336DC" opacity="1.000000" stroke="none" d=" M800.000366,532.002441   C793.738098,526.588013 785.676941,527.690796 778.374756,526.251404   C770.480103,524.695251 762.414001,524.008301 753.965271,522.910645   C755.127991,519.078003 756.748169,515.276917 758.606873,511.229004   C762.078247,503.812805 767.916626,503.899994 774.500183,504.888306   C778.998657,505.563629 783.827332,504.435730 788.205200,505.438324   C798.336853,507.758606 808.284363,510.883270 818.478516,514.128662   C812.433838,520.384521 806.217102,526.193481 800.000366,532.002441  z"/>
<path fill="#6E30E7" opacity="1.000000" stroke="none" d=" M829.242676,499.642548   C829.050293,494.371216 824.258667,493.784698 820.594482,492.510712   C815.953857,490.897308 811.098083,489.779053 806.252563,488.904694   C796.350769,487.118134 786.391296,485.652740 776.461487,484.019043   C774.027893,483.618652 771.617126,483.079285 768.865173,482.538879   C768.347900,483.742004 767.805786,485.002991 767.236572,486.326874   C766.031860,485.852112 764.984802,485.439514 763.612061,484.997070   C763.175415,481.607605 763.064453,478.248016 763.135254,474.328552   C763.441345,473.450226 763.350708,473.199554 763.045044,473.016663   C762.688843,470.948029 762.332642,468.879425 762.025635,466.413116   C763.754456,468.453400 765.480713,469.879761 769.027527,469.260132   C772.155212,468.713745 775.569275,469.882233 778.865601,470.204315   C782.159729,470.526215 785.600891,471.458923 788.740356,470.866608   C799.654785,468.807404 809.726440,472.752563 820.106628,474.529419   C823.205444,475.059906 826.314514,475.530334 829.871460,476.037659   C830.392456,478.060272 830.460876,480.073517 830.187622,482.667969   C829.969727,483.812897 830.093506,484.376617 830.217285,484.940338   C829.945801,489.721161 829.674255,494.501953 829.242676,499.642548  z"/>
<path fill="#28AEEA" opacity="1.000000" stroke="none" d=" M566.695496,579.811646   C573.440002,574.143616 580.184448,568.475647 587.109375,562.511108   C591.441895,560.462891 595.593994,558.711304 600.435547,556.862427   C602.085510,556.157532 603.046021,555.549927 604.006531,554.942261   C604.006531,554.942261 603.994263,555.004761 604.271484,554.951965   C605.022339,554.531860 605.496033,554.164551 605.969666,553.797241   C605.969666,553.797241 605.940430,553.925354 606.201599,553.878052   C606.902649,553.401550 607.342529,552.972351 607.782349,552.543152   C607.782349,552.543152 607.760864,552.687683 608.060791,552.717346   C612.869934,554.161743 617.379150,555.576538 621.888306,556.991272   C621.722107,557.556763 621.555969,558.122253 621.245850,559.063232   C621.101929,559.438660 621.197876,559.320984 621.197876,559.320984   C617.043945,569.184143 612.890076,579.047363 608.270935,588.816528   C603.310120,584.713806 597.967896,584.760986 592.428467,585.340576   C589.850403,585.610352 587.087708,585.910034 584.641052,585.285583   C578.587769,583.740723 572.668579,581.670654 566.695496,579.811646  z"/>
<path fill="#6E30E7" opacity="1.000000" stroke="none" d=" M302.013702,492.039001   C307.333588,491.603394 312.664825,491.271912 317.969330,490.694855   C321.386566,490.323120 324.764557,489.590881 328.947266,489.026733   C332.563660,489.447784 335.045685,490.401947 334.936127,493.827606   C334.742004,499.897522 335.237457,505.660736 339.446533,510.602722   C340.235016,511.528564 339.843140,513.459717 339.995972,514.927002   C323.306152,514.992249 306.616333,515.057495 289.345642,514.743286   C289.056793,513.351746 289.136322,512.206177 289.674713,511.348877   C293.737000,504.880402 297.889435,498.468506 302.013702,492.039001  z"/>
<path fill="#6768F1" opacity="1.000000" stroke="none" d=" M623.670654,492.862152   C630.768005,488.233978 637.809631,483.516876 644.987122,479.016479   C648.387329,476.884521 651.153870,474.756805 650.190674,470.071045   C649.913147,468.720917 650.667480,467.158752 651.534546,465.367340   C663.747681,468.354706 675.374939,471.668488 687.002197,474.982300   C685.230225,486.202148 673.409912,492.433380 661.573547,488.013031   C658.514099,486.870483 656.341614,487.138519 653.774109,488.826355   C646.961731,493.304810 640.031189,497.603455 632.416992,501.999420   C626.094543,501.525055 625.752686,496.432495 623.670654,492.862152  z"/>
<path fill="#441EA8" opacity="1.000000" stroke="none" d=" M409.914185,465.253937   C406.305878,464.970215 402.697601,464.686462 398.683746,464.290588   C402.301331,456.239441 406.324432,448.300415 410.707550,440.497070   C414.337616,443.273590 417.308044,446.475708 420.950043,448.419647   C426.030518,451.131348 430.325836,456.150085 437.374420,455.025513   C448.576019,459.701172 452.557281,469.710907 456.908783,479.447021   C457.461761,480.684235 458.287689,481.799438 458.987183,482.971161   C458.586151,486.282928 458.185120,489.594666 457.742584,493.307190   C456.590393,493.386841 455.479767,493.065765 454.070221,492.295410   C453.194672,485.067444 449.402191,480.061249 444.338287,476.124390   C434.262939,468.291382 422.355408,465.824493 409.914185,465.253937  z"/>
<path fill="#441EA8" opacity="1.000000" stroke="none" d=" M131.106323,484.024231   C129.325958,485.487823 127.545570,486.951416 124.898796,489.127228   C139.454529,499.007111 153.632828,508.630829 168.269867,518.565918   C165.658951,521.936890 163.360794,524.904114 160.754166,528.269531   C141.631866,515.446228 122.783791,502.806854 102.944405,489.502716   C109.639496,484.748688 115.524742,480.569733 121.748108,476.633057   C125.092926,479.258331 128.099625,481.641296 131.106323,484.024231  z"/>
<path fill="#8132ED" opacity="1.000000" stroke="none" d=" M340.457703,515.017578   C339.843140,513.459717 340.235016,511.528564 339.446533,510.602722   C335.237457,505.660736 334.742004,499.897522 334.936127,493.827606   C335.045685,490.401947 332.563660,489.447784 329.344147,489.014771   C329.623871,486.254517 330.293823,483.512665 331.392975,480.386505   C336.605011,478.380005 341.424469,476.857208 346.161682,475.111115   C352.499542,472.775055 353.412140,473.060333 356.059387,479.229736   C356.566437,480.411377 356.705719,481.750763 357.014648,483.017365   C353.740112,491.760834 359.733215,498.570648 361.850128,506.189056   C362.580353,508.817230 363.317322,511.443573 364.055725,514.481812   C356.346619,514.964600 348.633026,515.036438 340.457703,515.017578  z"/>
<path fill="#27CDEB" opacity="1.000000" stroke="none" d=" M600.218018,608.811157   C596.500977,613.872314 592.539856,613.899414 586.691833,612.468872   C575.363159,609.697754 563.575439,608.844727 552.017212,606.956665   C544.127686,605.667908 536.304626,603.971863 528.206238,602.184875   C532.981262,599.288513 538.001892,596.665100 543.610962,593.895508   C544.458313,593.527466 544.717163,593.305542 544.976013,593.083557   C544.976013,593.083557 545.302490,592.892029 545.911682,592.968750   C552.074463,593.881531 557.602844,595.127258 563.186768,595.471252   C576.242676,596.275513 589.155884,600.510132 602.409058,597.272400   C603.085205,597.107300 603.952148,597.723267 604.730225,597.975647   C604.175232,598.793335 603.620300,599.610962 602.764160,600.997986   C602.016479,603.108093 601.569946,604.648804 601.123352,606.189575   C601.123352,606.189575 601.097900,606.103516 601.004517,606.158691   C600.652710,606.437988 600.637085,606.692017 600.864136,606.975891   C600.720154,607.522705 600.576172,608.069580 600.218018,608.811157  z"/>
<path fill="#8132ED" opacity="1.000000" stroke="none" d=" M317.390259,599.021118   C317.637634,597.572388 317.948883,595.823608 318.949677,594.676575   C327.276703,585.132507 335.756805,575.722168 344.116913,566.206604   C345.284973,564.877197 346.052124,563.195618 347.444550,560.976196   C344.695953,560.328613 342.585663,559.831421 340.255341,559.086670   C346.416656,558.900024 352.798065,558.960938 359.896118,559.282837   C362.067474,559.420471 363.522156,559.297119 364.976837,559.173828   C365.706024,559.074951 366.435181,558.976074 367.547760,559.262085   C365.607239,566.451416 364.596649,573.914856 357.580658,578.227173   C356.268524,579.033691 355.850220,581.294495 355.019409,582.884155   C355.019409,582.884155 354.836029,583.114380 354.420837,583.189636   C353.667328,583.472656 353.328979,583.680481 352.990662,583.888306   C341.251678,588.925537 329.512726,593.962769 317.390259,599.021118  z"/>
<path fill="#7F65F2" opacity="1.000000" stroke="none" d=" M357.430908,483.007996   C356.705719,481.750763 356.566437,480.411377 356.059387,479.229736   C353.412140,473.060333 352.499542,472.775055 346.161682,475.111115   C341.424469,476.857208 336.605011,478.380005 331.411102,480.000397   C326.758057,475.857300 322.373810,471.803436 321.943268,464.864441   C340.335388,464.377411 358.748383,464.331238 377.622803,464.407898   C377.712585,469.061066 377.340942,473.591461 376.977325,478.538330   C372.539032,479.983002 368.100403,481.046509 363.642731,482.022858   C361.731354,482.441498 359.780243,482.678894 357.430908,483.007996  z"/>
<path fill="#28C1EB" opacity="1.000000" stroke="none" d=" M604.950989,597.679565   C603.952148,597.723267 603.085205,597.107300 602.409058,597.272400   C589.155884,600.510132 576.242676,596.275513 563.186768,595.471252   C557.602844,595.127258 552.074463,593.881531 546.098999,592.941833   C551.463013,589.248718 557.248962,585.659302 563.627380,581.891846   C564.472351,581.455872 564.724792,581.197998 564.977295,580.940186   C564.977295,580.940186 564.994690,580.998169 565.173889,580.884644   C565.612976,580.599854 565.822266,580.380310 565.980896,580.112610   C565.980896,580.112610 566.323364,579.924133 566.509399,579.867920   C572.668579,581.670654 578.587769,583.740723 584.641052,585.285583   C587.087708,585.910034 589.850403,585.610352 592.428467,585.340576   C597.967896,584.760986 603.310120,584.713806 608.000366,589.053955   C607.187256,592.051453 606.179504,594.717468 604.950989,597.679565  z"/>
<path fill="#353CCB" opacity="1.000000" stroke="none" d=" M454.032043,411.004089   C452.724609,413.613953 451.460052,416.246460 450.097839,418.827362   C448.691345,421.492126 448.703217,423.813568 451.655945,426.176208   C449.304260,431.491608 446.318298,436.192963 448.771912,442.209076   C447.368408,442.968109 446.183441,443.485504 444.666687,443.996582   C443.892639,443.983490 443.450348,443.976746 442.918549,443.647247   C440.026733,440.779968 436.686859,438.613831 434.560791,435.593323   C432.014771,431.976074 429.091431,430.836243 424.903595,430.887177   C422.871521,430.911896 420.821899,429.496063 418.780273,428.732422   C419.677032,427.557587 420.573792,426.382782 421.915771,424.907532   C422.559204,424.366028 422.774780,424.141541 423.007660,423.933655   C423.007660,423.933655 423.001221,424.005432 423.150818,423.827301   C423.537903,423.406616 423.775391,423.164093 424.012878,422.921570   C424.012878,422.921539 424.012970,423.012787 424.153320,422.834869   C424.533600,422.411011 424.773560,422.165070 425.013550,421.919128   C425.013550,421.919128 425.011932,422.019196 425.138611,421.821594   C425.518799,421.159241 425.772278,420.694458 426.025757,420.229675   C429.327972,416.851807 432.630188,413.473938 436.679688,410.027313   C442.962006,410.307098 448.497040,410.655609 454.032043,411.004089  z"/>
<path fill="#4336DC" opacity="1.000000" stroke="none" d=" M257.890778,488.261536   C263.636414,488.653229 269.266937,489.004913 274.721069,490.177307   C276.914001,490.648773 278.719818,492.921082 280.628235,494.936554   C277.143127,498.739258 273.523590,501.791992 270.386169,505.278595   C267.891907,508.050476 265.987122,511.352783 263.820618,514.419617   C255.713501,512.778259 247.606369,511.136871 239.250732,509.237732   C245.236420,502.170319 251.470642,495.360718 257.890778,488.261536  z"/>
<path fill="#3A8BF5" opacity="1.000000" stroke="none" d=" M773.122803,549.165955   C780.425293,544.640320 787.884644,540.429138 795.944092,536.244141   C801.325317,542.166199 807.035645,546.286926 815.069824,545.968872   C811.935120,551.209412 808.800415,556.450012 805.064941,561.932129   C804.006958,562.826416 803.549805,563.479187 803.092651,564.131958   C803.092651,564.131958 803.061462,564.091125 803.084961,564.101562   C796.022156,565.226257 791.160400,560.131287 785.491089,557.516357   C781.115906,555.498291 777.328491,552.206055 773.122803,549.165955  z"/>
<path fill="#3A8BF5" opacity="1.000000" stroke="none" d=" M623.375732,493.025391   C625.752686,496.432495 626.094543,501.525055 632.089600,502.054260   C628.597656,504.666504 624.873718,507.575104 620.758850,509.740936   C616.667053,511.894684 614.453430,514.598450 614.935059,519.442505   C613.316040,519.047791 612.187256,518.407959 610.975159,518.051453   C605.666626,516.489929 600.266907,515.208923 595.031738,513.437439   C590.977722,512.065552 587.670166,509.632507 587.650085,504.502197   C586.195007,504.639099 585.078796,504.744110 583.962646,504.849121   C589.721008,498.486084 596.924072,498.687744 604.090271,501.159607   C607.178955,502.224976 609.247925,502.027557 611.757690,500.310638   C615.435059,497.794891 619.297302,495.549377 623.375732,493.025391  z"/>
<path fill="#A744F2" opacity="1.000000" stroke="none" d=" M540.486084,423.406891   C541.189697,421.764648 542.050537,419.342438 543.545288,418.851807   C558.257324,414.023193 573.055481,409.451019 587.897400,405.035217   C589.131653,404.667999 590.863281,405.972473 592.581604,406.739197   C590.353149,412.237000 587.906921,417.495880 584.873169,422.780487   C583.833740,422.990692 583.381836,423.175171 582.929993,423.359619   C568.932556,423.414185 554.935059,423.468750 540.486084,423.406891  z"/>
<path fill="#6E30E7" opacity="1.000000" stroke="none" d=" M472.018036,440.019897   C478.669312,435.479919 485.056091,430.469391 492.049774,426.538727   C498.433624,422.950867 503.601288,418.460052 507.789062,412.193176   C514.091187,415.508972 513.917236,421.626434 514.870789,427.686340   C500.647186,433.476379 487.548218,441.109192 476.560730,452.342224   C474.792938,448.057129 473.405487,444.038513 472.018036,440.019897  z"/>
<path fill="#2B5CF0" opacity="1.000000" stroke="none" d=" M815.333618,545.752563   C807.035645,546.286926 801.325317,542.166199 796.251892,536.083496   C797.194702,534.777832 798.429749,533.659119 799.832520,532.271423   C806.217102,526.193481 812.433838,520.384521 818.800110,514.280518   C821.779541,510.374207 824.609436,506.762909 827.781189,503.099548   C826.750183,510.317139 825.931946,517.750366 823.848877,524.810486   C821.753479,531.912292 818.399841,538.642944 815.333618,545.752563  z"/>
<path fill="#7F65F2" opacity="1.000000" stroke="none" d=" M687.184204,474.633972   C675.374939,471.668488 663.747681,468.354706 651.746826,465.011230   C654.729614,455.287781 663.308716,450.481903 673.197632,452.755951   C683.497681,455.124542 688.829834,463.226959 687.184204,474.633972  z"/>
<path fill="#2B5CF0" opacity="1.000000" stroke="none" d=" M454.336334,410.853699   C448.497040,410.655609 442.962006,410.307098 436.987915,409.944397   C447.006165,399.560974 459.289337,391.844421 472.718201,385.222900   C476.944794,385.184845 478.138824,386.429443 477.296387,390.761993   C476.016296,397.345490 473.228943,401.738525 466.674377,404.092804   C462.420471,405.620758 458.635620,408.454559 454.336334,410.853699  z"/>
<path fill="#3A2EB8" opacity="1.000000" stroke="none" d=" M418.497314,428.915314   C420.821899,429.496063 422.871521,430.911896 424.903595,430.887177   C429.091431,430.836243 432.014771,431.976074 434.560791,435.593323   C436.686859,438.613831 440.026733,440.779968 442.653992,443.886963   C436.868011,445.983490 437.609070,450.812836 437.028137,454.956390   C430.325836,456.150085 426.030518,451.131348 420.950043,448.419647   C417.308044,446.475708 414.337616,443.273590 410.973816,440.295410   C413.324890,436.338074 415.769653,432.718140 418.497314,428.915314  z"/>
<path fill="#5932E2" opacity="1.000000" stroke="none" d=" M264.173523,514.656860   C265.987122,511.352783 267.891907,508.050476 270.386169,505.278595   C273.523590,501.791992 277.143127,498.739258 280.782440,495.258484   C287.736206,494.029877 294.462158,493.042114 301.600922,492.046661   C297.889435,498.468506 293.737000,504.880402 289.674713,511.348877   C289.136322,512.206177 289.056793,513.351746 288.885834,514.647461   C280.846741,514.918823 272.686554,514.906433 264.173523,514.656860  z"/>
<path fill="#45A3F5" opacity="1.000000" stroke="none" d=" M583.917358,504.858704   C585.078796,504.744110 586.195007,504.639099 587.650085,504.502197   C587.670166,509.632507 590.977722,512.065552 595.031738,513.437439   C600.266907,515.208923 605.666626,516.489929 610.975159,518.051453   C612.187256,518.407959 613.316040,519.047791 614.781494,519.800598   C614.731384,521.815979 614.382935,523.588013 613.521790,525.791138   C612.460632,527.306763 611.912170,528.391296 611.363647,529.475830   C611.363708,529.475830 611.118103,529.049316 610.841064,529.129944   C604.812378,527.193176 598.993225,525.346619 593.328247,523.109619   C587.801208,520.927124 582.379761,518.419495 578.999512,513.088196   C579.362427,511.812866 579.725403,510.537506 580.578369,508.900757   C581.200073,508.205444 581.331726,507.871582 581.463440,507.537689   C581.463440,507.537689 581.621826,507.533478 581.834595,507.463196   C582.320801,506.919342 582.594177,506.445801 582.867615,505.972260   C582.867615,505.972260 582.869812,505.883820 583.107483,505.775024   C583.587158,505.482666 583.757019,505.247040 583.854736,504.959381   C583.854736,504.959381 583.872009,504.868347 583.917358,504.858704  z"/>
<path fill="#28AEEA" opacity="1.000000" stroke="none" d=" M578.821289,513.431519   C582.379761,518.419495 587.801208,520.927124 593.328247,523.109619   C598.993225,525.346619 604.812378,527.193176 610.975464,529.336182   C606.820190,534.458008 601.395935,537.686401 594.396973,536.562073   C582.958618,534.724731 576.798645,525.644409 578.821289,513.431519  z"/>
<path fill="#452CC6" opacity="1.000000" stroke="none" d=" M437.374420,455.025513   C437.609070,450.812836 436.868011,445.983490 442.743500,444.209717   C443.450348,443.976746 443.892639,443.983490 444.730133,444.350189   C450.586884,453.655273 456.039948,462.605621 461.544525,471.524200   C461.743408,471.846405 462.449951,471.855225 462.919922,472.010101   C462.222229,474.305603 461.524536,476.601074 460.427307,479.370575   C459.765747,480.593262 459.503754,481.341980 459.241730,482.090668   C459.241730,482.090668 459.167908,482.546692 459.077545,482.758911   C458.287689,481.799438 457.461761,480.684235 456.908783,479.447021   C452.557281,469.710907 448.576019,459.701172 437.374420,455.025513  z"/>
<path fill="#A744F2" opacity="1.000000" stroke="none" d=" M355.360046,582.818237   C355.850220,581.294495 356.268524,579.033691 357.580658,578.227173   C364.596649,573.914856 365.607239,566.451416 367.917297,559.258911   C372.029572,556.966370 376.155731,555.062012 380.609924,553.015869   C381.670746,556.830505 382.403564,560.786865 383.175690,565.224426   C374.043579,571.387817 364.872131,577.070068 355.360046,582.818237  z"/>
<path fill="#512BCE" opacity="1.000000" stroke="none" d=" M463.103302,471.719055   C462.449951,471.855225 461.743408,471.846405 461.544525,471.524200   C456.039948,462.605621 450.586884,453.655273 445.061890,444.356537   C446.183441,443.485504 447.368408,442.968109 449.100891,442.366150   C451.765228,442.859283 453.881989,443.436951 456.064880,444.355225   C460.703644,450.114502 465.276306,455.533173 469.848999,460.951843   C467.661560,464.443909 465.474121,467.935944 463.103302,471.719055  z"/>
<path fill="#353CCB" opacity="1.000000" stroke="none" d=" M140.955551,462.894043   C147.255188,458.400635 153.554840,453.907257 160.416855,449.012726   C162.870361,452.252838 165.173569,455.294464 167.813797,458.781158   C161.141495,463.424561 154.965576,467.722534 148.286041,471.818298   C145.506790,468.708740 143.231171,465.801392 140.955551,462.894043  z"/>
<path fill="#3A2EB8" opacity="1.000000" stroke="none" d=" M140.652435,463.055786   C143.231171,465.801392 145.506790,468.708740 147.952911,471.928467   C142.666046,476.099884 137.208694,479.958923 131.428833,483.921082   C128.099625,481.641296 125.092926,479.258331 122.068451,476.533752   C128.150208,471.867249 134.249756,467.542389 140.652435,463.055786  z"/>
<path fill="#2B5CF0" opacity="1.000000" stroke="none" d=" M731.620972,547.593384   C734.304321,549.318909 736.725098,551.141479 739.085388,553.039429   C740.412231,554.106445 741.638916,555.297974 742.974365,556.790649   C732.661743,558.730164 722.320007,560.625427 711.896179,561.776672   C705.695129,562.461548 699.364807,561.975952 692.656128,561.962219   C704.833679,559.969971 717.029968,556.777405 728.619385,549.833374   C729.449585,549.435730 729.687439,549.188477 729.925293,548.941223   C730.394592,548.534790 730.863831,548.128357 731.620972,547.593384  z"/>
<path fill="#612BD6" opacity="1.000000" stroke="none" d=" M470.107239,460.739990   C465.276306,455.533173 460.703644,450.114502 456.381348,444.199707   C459.752899,442.462219 462.874054,441.220886 465.995209,439.979523   C467.715515,439.986786 469.435852,439.994080 471.587097,440.010620   C473.405487,444.038513 474.792938,448.057129 476.249084,452.525696   C474.333740,455.493195 472.349609,458.010651 470.107239,460.739990  z"/>
<path fill="#3A8BF5" opacity="1.000000" stroke="none" d=" M622.116211,556.725891   C617.379150,555.576538 612.869934,554.161743 607.992310,552.692017   C616.581787,544.128784 625.539795,535.620483 634.595276,527.019592   C630.556885,536.724182 626.450439,546.592346 622.116211,556.725891  z"/>
<path fill="#7F65F2" opacity="1.000000" stroke="none" d=" M573.548218,369.359863   C572.407166,369.638641 570.866150,369.823517 569.193359,369.727661   C570.423828,369.386627 571.786072,369.326294 573.548218,369.359863  z"/>
<path fill="#3A2EB8" opacity="1.000000" stroke="none" d=" M599.497192,369.334076   C597.515808,369.565063 595.122192,369.653259 592.415039,369.571350   C594.429321,369.331299 596.757141,369.261292 599.497192,369.334076  z"/>
<path fill="#D062F7" opacity="1.000000" stroke="none" d=" M624.956299,371.760315   C624.772095,372.616638 624.419678,373.686310 623.753784,374.862488   C623.889587,373.970551 624.338806,372.972107 624.956299,371.760315  z"/>
<path fill="#25DAE9" opacity="1.000000" stroke="none" d=" M601.385254,605.953735   C601.569946,604.648804 602.016479,603.108093 602.669434,601.299438   C602.466309,602.593750 602.056763,604.155823 601.385254,605.953735  z"/>
<path fill="#441EA8" opacity="1.000000" stroke="none" d=" M530.321533,424.869232   C531.387817,424.487427 532.823425,424.181244 534.626892,423.970581   C533.560120,424.359009 532.125549,424.651947 530.321533,424.869232  z"/>
<path fill="#A744F2" opacity="1.000000" stroke="none" d=" M364.569580,559.111328   C363.522156,559.297119 362.067474,559.420471 360.336792,559.367920   C361.427948,559.144409 362.795166,559.096619 364.569580,559.111328  z"/>
<path fill="#28AEEA" opacity="1.000000" stroke="none" d=" M611.625000,529.318359   C611.912170,528.391296 612.460632,527.306763 613.297241,526.111694   C613.018982,527.054382 612.452637,528.107666 611.625000,529.318359  z"/>
<path fill="#1B023E" opacity="1.000000" stroke="none" d=" M459.531555,481.953857   C459.503754,481.341980 459.765747,480.593262 460.337341,479.718292   C460.371704,480.333710 460.096527,481.075409 459.531555,481.953857  z"/>
<path fill="#3A8BF5" opacity="1.000000" stroke="none" d=" M603.660767,554.981567   C603.046021,555.549927 602.085510,556.157532 600.778687,556.841736   C601.393250,556.285828 602.354126,555.653320 603.660767,554.981567  z"/>
<path fill="#28AEEA" opacity="1.000000" stroke="none" d=" M803.386414,564.035156   C803.549805,563.479187 804.006958,562.826416 804.776245,562.101440   C804.618958,562.665588 804.149597,563.301941 803.386414,564.035156  z"/>
<path fill="#A744F2" opacity="1.000000" stroke="none" d=" M387.941406,537.241699   C388.141022,537.620361 388.181793,538.219421 388.033569,538.926453   C387.823883,538.510315 387.803253,537.986267 387.941406,537.241699  z"/>
<path fill="#3A8BF5" opacity="1.000000" stroke="none" d=" M607.475342,552.605225   C607.342529,552.972351 606.902649,553.401550 606.138428,553.859924   C606.265564,553.481812 606.716980,553.074524 607.475342,552.605225  z"/>
<path fill="#3A8BF5" opacity="1.000000" stroke="none" d=" M605.659790,553.825439   C605.496033,554.164551 605.022339,554.531860 604.242126,554.939575   C604.406982,554.604614 604.878418,554.229126 605.659790,553.825439  z"/>
<path fill="#3A2EB8" opacity="1.000000" stroke="none" d=" M607.366699,371.757263   C607.244385,371.453369 607.312378,371.017517 607.528198,370.282471   C607.636353,370.530609 607.596680,371.077942 607.366699,371.757263  z"/>
<path fill="#3A2EB8" opacity="1.000000" stroke="none" d=" M530.853271,369.616638   C530.622070,369.823364 530.221375,369.928284 529.515747,369.968750   C529.701782,369.774445 530.192810,369.644623 530.853271,369.616638  z"/>
<path fill="#3A8BF5" opacity="1.000000" stroke="none" d=" M582.613770,506.059265   C582.594177,506.445801 582.320801,506.919342 581.760986,507.434052   C581.769653,507.032227 582.064819,506.589233 582.613770,506.059265  z"/>
<path fill="#2B5CF0" opacity="1.000000" stroke="none" d=" M828.327820,502.957336   C828.224121,502.558441 828.397583,502.013885 828.775635,501.265259   C828.855164,501.644653 828.730103,502.228149 828.327820,502.957336  z"/>
<path fill="#8132ED" opacity="1.000000" stroke="none" d=" M830.330933,484.609558   C830.093506,484.376617 829.969727,483.812897 830.048523,483.080322   C830.315613,483.367218 830.380066,483.822998 830.330933,484.609558  z"/>
<path fill="#D062F7" opacity="1.000000" stroke="none" d=" M804.478638,406.140503   C804.143799,406.077484 803.665894,405.767792 803.113159,405.156097   C803.470764,405.200684 803.903198,405.547272 804.478638,406.140503  z"/>
<path fill="#2B5CF0" opacity="1.000000" stroke="none" d=" M425.787781,420.379852   C425.772278,420.694458 425.518799,421.159241 425.088623,421.821655   C425.124542,421.522888 425.337158,421.026459 425.787781,420.379852  z"/>
<path fill="#BF53F7" opacity="1.000000" stroke="none" d=" M613.666382,400.017883   C613.692627,400.448792 613.420532,401.004669 612.877686,401.725677   C612.860535,401.308136 613.114258,400.725464 613.666382,400.017883  z"/>
<path fill="#D062F7" opacity="1.000000" stroke="none" d=" M807.617310,409.730835   C807.284424,409.655304 806.877380,409.331573 806.427612,408.737000   C806.770935,408.804962 807.157043,409.143829 807.617310,409.730835  z"/>
<path fill="#441EA8" opacity="1.000000" stroke="none" d=" M583.168823,423.458405   C583.381836,423.175171 583.833740,422.990692 584.525879,422.874481   C584.313293,423.147552 583.860474,423.352356 583.168823,423.458405  z"/>
<path fill="#4336DC" opacity="1.000000" stroke="none" d=" M236.349182,508.046875   C236.327545,507.932068 236.631927,507.979034 236.692017,508.028534   C236.752106,508.078033 236.370804,508.161713 236.349182,508.046875  z"/>
<path fill="#25DAE9" opacity="1.000000" stroke="none" d=" M601.019287,606.781128   C600.637085,606.692017 600.652710,606.437988 601.048706,606.151123   C601.186340,606.088501 601.174377,606.586365 601.019287,606.781128  z"/>
<path fill="#441EA8" opacity="1.000000" stroke="none" d=" M426.355347,592.104248   C426.525940,592.012146 426.699585,592.142883 426.910706,592.470093   C426.727753,592.610474 426.531158,592.497314 426.355347,592.104248  z"/>
<path fill="#3A2EB8" opacity="1.000000" stroke="none" d=" M534.730713,369.361023   C534.741699,369.708771 534.507629,369.814331 534.030334,369.681458   C534.014038,369.326416 534.246887,369.218353 534.730713,369.361023  z"/>
<path fill="#3A8BF5" opacity="1.000000" stroke="none" d=" M621.129395,559.282837   C621.197876,559.320984 621.101929,559.438660 621.097168,559.482788   C621.092407,559.526917 621.060852,559.244629 621.129395,559.282837  z"/>
<path fill="#3A2EB8" opacity="1.000000" stroke="none" d=" M606.876343,369.374023   C607.013489,369.499084 606.729187,369.734680 606.729187,369.734680   C606.729187,369.734680 606.360474,369.717285 606.221375,369.597473   C606.244080,369.236877 606.463074,369.160645 606.876343,369.374023  z"/>
<path fill="#D062F7" opacity="1.000000" stroke="none" d=" M805.471497,407.277466   C805.283325,407.316681 804.978516,407.129639 804.632996,406.663757   C804.846497,406.607056 805.100647,406.829132 805.471497,407.277466  z"/>
<path fill="#D062F7" opacity="1.000000" stroke="none" d=" M808.917480,411.681793   C808.698303,411.683197 808.502075,411.394653 808.208618,410.861938   C808.387756,410.875793 808.664062,411.133820 808.917480,411.681793  z"/>
<path fill="#BF53F7" opacity="1.000000" stroke="none" d=" M813.415894,417.431030   C813.213074,417.451843 812.934387,417.220154 812.635742,416.706482   C812.857178,416.675812 813.098572,416.927155 813.415894,417.431030  z"/>
<path fill="#BF53F7" opacity="1.000000" stroke="none" d=" M814.203857,418.606476   C813.997192,418.624939 813.731812,418.353760 813.387268,417.802490   C813.587158,417.787201 813.866211,418.052002 814.203857,418.606476  z"/>
<path fill="#BF53F7" opacity="1.000000" stroke="none" d=" M814.949829,419.716187   C814.754944,419.731476 814.535278,419.469360 814.215698,418.967468   C814.385559,418.964722 814.655273,419.201752 814.949829,419.716187  z"/>
<path fill="#BF53F7" opacity="1.000000" stroke="none" d=" M815.941040,421.649475   C815.705933,421.631866 815.492249,421.277557 815.192749,420.620667   C815.392090,420.649658 815.677307,420.981232 815.941040,421.649475  z"/>
<path fill="#2B5CF0" opacity="1.000000" stroke="none" d=" M424.718567,421.957825   C424.773560,422.165070 424.533600,422.411011 424.107666,422.835571   C424.089020,422.674988 424.256287,422.335754 424.718567,421.957825  z"/>
<path fill="#2B5CF0" opacity="1.000000" stroke="none" d=" M423.730713,422.969910   C423.775391,423.164093 423.537903,423.406616 423.114899,423.824280   C423.102417,423.672302 423.275452,423.345276 423.730713,422.969910  z"/>
<path fill="#2B5CF0" opacity="1.000000" stroke="none" d=" M422.770416,424.018860   C422.774780,424.141541 422.559204,424.366028 422.211212,424.784027   C422.218719,424.675323 422.375946,424.389679 422.770416,424.018860  z"/>
<path fill="#D062F7" opacity="1.000000" stroke="none" d=" M806.419800,408.391479   C806.220703,408.429016 805.905640,408.204865 805.513184,407.690918   C805.725098,407.644012 806.014465,407.886902 806.419800,408.391479  z"/>
<path fill="#5932E2" opacity="1.000000" stroke="none" d=" M762.984741,473.261688   C763.350708,473.199554 763.441345,473.450226 763.208618,473.874268   C763.041626,473.822144 762.983032,473.664429 762.984741,473.261688  z"/>
<path fill="#3A8BF5" opacity="1.000000" stroke="none" d=" M583.624573,505.016113   C583.757019,505.247040 583.587158,505.482666 583.151367,505.769379   C582.951111,505.522797 583.096741,505.256226 583.624573,505.016113  z"/>
<path fill="#3A8BF5" opacity="1.000000" stroke="none" d=" M581.245300,507.693359   C581.331726,507.871582 581.200073,508.205444 580.830505,508.676025   C580.737488,508.491516 580.882324,508.170288 581.245300,507.693359  z"/>
<path fill="#3A8BF5" opacity="1.000000" stroke="none" d=" M635.495117,524.514221   C635.480530,524.518494 635.509644,524.509949 635.495117,524.514221  z"/>
<path fill="#441EA8" opacity="1.000000" stroke="none" d=" M469.034515,539.733398   C468.794434,539.768677 468.557190,539.521545 468.254211,539.021423   C468.471405,538.995911 468.754395,539.223389 469.034515,539.733398  z"/>
<path fill="#A744F2" opacity="1.000000" stroke="none" d=" M387.132812,542.246216   C387.513153,542.283569 387.529724,542.551514 387.191589,542.907837   C387.039185,542.814514 387.016541,542.641357 387.132812,542.246216  z"/>
<path fill="#353CCB" opacity="1.000000" stroke="none" d=" M729.657349,548.972168   C729.687439,549.188477 729.449585,549.435730 728.955444,549.733887   C728.929199,549.524292 729.159363,549.263672 729.657349,548.972168  z"/>
<path fill="#D062F7" opacity="1.000000" stroke="none" d=" M409.788452,465.552368   C422.355408,465.824493 434.262939,468.291382 444.338287,476.124390   C449.402191,480.061249 453.194672,485.067444 453.725769,492.204529   C446.352509,502.321472 439.024780,512.079956 431.378601,521.973389   C433.618439,507.672089 428.148682,495.388763 419.015442,485.205536   C414.570648,480.249786 411.716095,475.248077 409.959869,469.208801   C409.651978,468.150177 409.751404,466.973145 409.788452,465.552368  z"/>
<path fill="#BF53F7" opacity="1.000000" stroke="none" d=" M399.229401,553.738525   C399.204926,553.347595 399.454590,552.853699 399.934723,552.195312   C399.944672,552.565735 399.724091,553.100647 399.229401,553.738525  z"/>
<path fill="#A744F2" opacity="1.000000" stroke="none" d=" M353.297668,583.840332   C353.328979,583.680481 353.667328,583.472656 354.281250,583.143066   C354.239471,583.278259 353.922089,583.535339 353.297668,583.840332  z"/>
<path fill="#D062F7" opacity="1.000000" stroke="none" d=" M430.835632,522.736267   C430.534485,522.639832 430.585968,522.381775 430.988525,522.105469   C431.071777,522.194946 431.021332,522.357422 430.835632,522.736267  z"/>
<path fill="#BF53F7" opacity="1.000000" stroke="none" d=" M396.316162,556.023071   C396.311188,555.840942 396.596191,555.580078 397.148865,555.199951   C397.146362,555.368591 396.876221,555.656494 396.316162,556.023071  z"/>
<path fill="#28AEEA" opacity="1.000000" stroke="none" d=" M564.720398,581.034241   C564.724792,581.197998 564.472351,581.455872 563.960205,581.808105   C563.954834,581.644470 564.209167,581.386353 564.720398,581.034241  z"/>
<path fill="#28C1EB" opacity="1.000000" stroke="none" d=" M544.722046,593.145264   C544.717163,593.305542 544.458313,593.527466 543.950256,593.827148   C543.956787,593.672302 544.212463,593.439697 544.722046,593.145264  z"/>
<path fill="#28AEEA" opacity="1.000000" stroke="none" d=" M565.758179,580.187622   C565.822266,580.380310 565.612976,580.599854 565.146362,580.872192   C565.052734,580.664734 565.251343,580.427856 565.758179,580.187622  z"/>
<path fill="#2B5CF0" opacity="1.000000" stroke="none" d=" M745.286133,556.974243   C745.510803,556.697510 746.035156,556.428589 746.864319,556.189514   C746.641357,556.473511 746.113586,556.727783 745.286133,556.974243  z"/>
<path fill="#2B5CF0" opacity="1.000000" stroke="none" d=" M750.209167,555.879150   C750.222900,555.726929 750.481262,555.520386 750.986572,555.262207   C750.973572,555.415283 750.713684,555.620056 750.209167,555.879150  z"/>
<path fill="#4336DC" opacity="1.000000" stroke="none" d=" M466.003784,439.584900   C462.874054,441.220886 459.752899,442.462219 456.315247,443.859070   C453.881989,443.436951 451.765228,442.859283 449.319458,442.124542   C446.318298,436.192963 449.304260,431.491608 451.956390,426.359009   C458.700684,423.848358 465.372223,421.691833 472.352570,419.435516   C470.192017,426.167267 468.102173,432.678772 466.003784,439.584900  z"/>
</svg>